<svg xmlns="http://www.w3.org/2000/svg" xmlns:xlink="http://www.w3.org/1999/xlink" width="500" zoomAndPan="magnify" viewBox="0 0 375 374.999991" height="500" preserveAspectRatio="xMidYMid meet" version="1.0"><defs><clipPath id="a4964cf446"><path d="M 3 3 L 371 3 L 371 371 L 3 371 Z M 3 3 " clip-rule="nonzero"/></clipPath><clipPath id="5af1cc5754"><path d="M 4.351562 6.226562 C 16.800781 14.175781 17.324219 14.851562 17.773438 15.898438 C 18.226562 16.875 18.226562 17.925781 18.375 19.351562 C 18.523438 21.449219 18.824219 24.148438 18.449219 27.523438 C 17.851562 33.375 15.523438 44.625 13.351562 51 C 11.773438 55.726562 8.699219 59.925781 7.726562 62.925781 C 7.199219 64.574219 7.199219 65.476562 7.050781 66.976562 C 6.898438 68.773438 6.601562 71.023438 7.050781 72.898438 C 7.5 74.773438 8.925781 76.199219 9.75 78.300781 C 10.800781 80.851562 11.851562 84.601562 12.300781 87.300781 C 12.75 89.550781 12.675781 91.648438 12.75 93.523438 C 12.824219 95.101562 12.898438 95.851562 12.75 97.800781 C 12.449219 102.226562 9.976562 111.898438 9.449219 119.023438 C 8.851562 126.375 9.824219 135.375 9.300781 141.300781 C 9 145.351562 8.101562 147.601562 7.800781 151.351562 C 7.425781 156 6.75 161.925781 7.574219 166.949219 C 8.476562 171.976562 10.949219 177.523438 12.75 181.5 C 14.101562 184.351562 15.898438 186.074219 16.800781 188.625 C 17.773438 191.25 18.226562 193.351562 18.449219 196.949219 C 18.898438 203.925781 18.824219 219 16.726562 227.398438 C 15.226562 233.699219 10.800781 237.601562 9.601562 243.300781 C 8.324219 249.375 10.425781 256.050781 9.898438 263.101562 C 9.226562 271.273438 5.773438 282.675781 5.398438 289.425781 C 5.101562 293.625 5.324219 296.101562 5.851562 299.625 C 6.375 303.449219 8.25 307.800781 8.699219 311.625 C 9.074219 314.925781 8.925781 318.074219 8.773438 321.148438 C 8.550781 324.074219 7.875 325.875 7.648438 329.550781 C 7.199219 336.148438 6.824219 354.226562 7.574219 357.976562 C 7.800781 358.949219 7.875 359.25 8.398438 359.699219 C 9 360.300781 10.5 360.148438 11.25 360.824219 C 12.074219 361.5 12.824219 363.148438 13.125 364.050781 C 13.273438 364.648438 13.425781 365.324219 13.273438 365.699219 C 13.125 366 12.449219 366.226562 12.226562 366.148438 C 12 366.074219 11.773438 365.773438 11.773438 365.550781 C 11.851562 365.25 12.75 364.949219 13.5 364.574219 C 14.851562 364.050781 16.648438 363.300781 19.648438 362.925781 C 26.773438 361.949219 46.726562 362.175781 56.699219 362.851562 C 63.449219 363.226562 69.148438 365.773438 73.648438 365.101562 C 76.875 364.574219 79.050781 362.175781 81.601562 361.425781 C 83.773438 360.824219 84.75 360.75 87.976562 360.523438 C 97.574219 359.925781 134.773438 358.125 145.5 360.523438 C 150 361.5 150.601562 363.898438 154.648438 364.800781 C 161.625 366.375 178.574219 364.273438 184.574219 365.101562 C 187.199219 365.476562 188.023438 366.300781 190.125 366.675781 C 192.824219 367.125 195.824219 367.351562 199.273438 367.351562 C 203.851562 367.273438 209.324219 366.601562 215.25 365.699219 C 222.75 364.5 235.273438 361.125 240.523438 360.375 C 242.851562 360 243.226562 360.074219 245.625 360 C 251.625 359.851562 267.824219 359.625 276.75 360.523438 C 283.648438 361.199219 289.726562 362.324219 294.75 363.75 C 298.574219 364.800781 301.648438 366.824219 304.648438 367.648438 C 306.976562 368.25 308.023438 368.25 311.101562 368.476562 C 318.601562 368.925781 341.324219 369.523438 349.726562 367.949219 C 353.851562 367.199219 355.875 365.25 358.800781 364.648438 C 361.425781 364.199219 365.398438 365.023438 366.601562 364.5 C 366.976562 364.351562 367.125 364.273438 367.273438 363.824219 C 367.875 362.398438 367.425781 356.851562 366.824219 353.550781 C 366.226562 350.25 364.425781 347.25 363.824219 343.949219 C 363.226562 340.5 362.625 336.523438 363.375 333.148438 C 364.199219 329.625 367.949219 326.324219 368.773438 323.175781 C 369.449219 320.773438 369.523438 318.824219 369.074219 316.273438 C 368.550781 312.976562 365.699219 308.625 364.648438 305.324219 C 363.898438 302.699219 363.523438 301.125 363.148438 298.199219 C 362.476562 293.550781 362.023438 286.199219 361.800781 280.125 C 361.574219 273.976562 362.023438 268.351562 361.648438 261.675781 C 361.273438 253.800781 358.5 243.898438 359.398438 235.949219 C 360.226562 228.75 364.648438 220.800781 365.773438 215.773438 C 366.449219 212.851562 366.601562 211.125 366.75 208.800781 C 366.898438 206.550781 367.199219 204.824219 366.824219 202.050781 C 366.074219 197.175781 361.800781 188.699219 360.75 182.398438 C 359.699219 176.699219 359.699219 172.273438 359.925781 165.898438 C 360.300781 157.199219 363.375 142.800781 363.898438 135 C 364.199219 130.199219 364.199219 127.648438 363.976562 123.449219 C 363.675781 118.351562 362.175781 111.300781 361.800781 106.648438 C 361.574219 103.425781 361.273438 101.324219 361.648438 98.324219 C 362.175781 94.574219 364.574219 89.398438 365.324219 85.949219 C 365.851562 83.550781 366.074219 81.824219 366.226562 79.726562 C 366.375 77.476562 366.523438 75.300781 366.226562 72.824219 C 365.851562 69.601562 364.125 66.300781 363.601562 62.25 C 362.851562 56.699219 363.226562 48.824219 363.375 42.449219 C 363.601562 36.523438 363.601562 30.601562 364.574219 25.351562 C 365.398438 20.550781 368.550781 14.851562 368.476562 12 C 368.398438 10.726562 368.101562 9.976562 367.5 9.226562 C 366.824219 8.324219 366 7.351562 364.425781 7.125 C 360.449219 6.449219 351.75 12.523438 341.625 14.101562 C 322.800781 16.949219 271.5 15.148438 258.976562 14.476562 C 255.375 14.25 253.648438 14.175781 251.925781 13.648438 C 250.875 13.351562 250.726562 12.675781 249.449219 12.449219 C 245.175781 11.773438 229.351562 15.300781 221.476562 15.976562 C 215.699219 16.5 211.949219 17.023438 206.476562 16.726562 C 199.648438 16.351562 189.75 14.324219 183.824219 13.125 C 180 12.300781 177.675781 11.773438 174.300781 10.648438 C 170.101562 9.226562 164.324219 5.773438 160.648438 4.949219 C 158.25 4.425781 156.523438 4.5 154.574219 4.726562 C 152.773438 4.949219 151.050781 5.324219 149.25 6.148438 C 147.226562 7.125 145.125 9.601562 143.324219 10.5 C 142.050781 11.101562 141.523438 11.101562 139.800781 11.550781 C 134.699219 12.675781 115.125 15.148438 109.425781 16.273438 C 107.175781 16.726562 106.5 16.800781 104.773438 17.476562 C 102.601562 18.300781 100.050781 20.550781 97.648438 21.226562 C 95.398438 21.898438 93.300781 21.976562 90.976562 21.824219 C 88.273438 21.601562 85.875 20.773438 82.351562 19.800781 C 76.5 18.074219 66.898438 13.5 59.398438 11.925781 C 52.5 10.425781 46.648438 10.425781 39.074219 10.050781 C 29.476562 9.601562 8.925781 11.550781 6.300781 9.898438 C 5.773438 9.523438 5.625 8.851562 5.699219 8.625 C 5.851562 8.476562 6.824219 8.625 6.976562 8.773438 C 7.050781 9 6.601562 9.824219 6.375 9.898438 C 6.148438 9.898438 5.550781 9.449219 5.550781 9.148438 C 5.550781 8.925781 5.773438 8.625 6.300781 8.398438 C 9.148438 7.199219 29.550781 8.101562 39.226562 8.550781 C 46.875 8.925781 52.800781 8.925781 59.773438 10.425781 C 67.273438 12.074219 76.949219 16.648438 82.726562 18.300781 C 86.101562 19.351562 88.425781 20.101562 90.898438 20.324219 C 93 20.550781 94.726562 20.625 96.75 20.023438 C 99.226562 19.351562 102.148438 16.875 104.398438 15.976562 C 106.199219 15.300781 106.875 15.300781 109.199219 14.773438 C 115.351562 13.5 135.824219 12.074219 142.351562 9.375 C 145.574219 8.023438 146.550781 5.773438 148.726562 4.726562 C 150.675781 3.824219 152.550781 3.449219 154.574219 3.226562 C 156.675781 3 158.550781 2.925781 161.023438 3.523438 C 164.851562 4.351562 170.476562 7.800781 174.675781 9.148438 C 178.050781 10.351562 180.300781 10.800781 184.199219 11.625 C 190.050781 12.824219 199.726562 14.851562 206.476562 15.226562 C 211.875 15.523438 215.550781 15 221.25 14.550781 C 229.273438 13.875 244.726562 10.648438 250.050781 11.175781 C 252.226562 11.398438 252.976562 12.375 254.398438 12.675781 C 255.898438 12.898438 256.5 12.898438 258.976562 12.976562 C 269.476562 13.351562 322.648438 15.523438 341.398438 12.601562 C 351.449219 11.101562 359.851562 5.476562 364.050781 5.550781 C 365.625 5.625 366.449219 6 367.351562 6.75 C 368.476562 7.726562 369.675781 9.523438 369.976562 11.324219 C 370.351562 13.5 369.226562 16.574219 368.550781 19.050781 C 367.875 21.300781 366.601562 22.726562 366 25.5 C 365.023438 29.773438 365.023438 36.601562 364.875 42.449219 C 364.726562 48.75 364.351562 56.550781 365.023438 62.101562 C 365.625 66.226562 367.351562 69.601562 367.726562 72.75 C 368.023438 75.375 367.875 77.476562 367.726562 79.800781 C 367.5 82.050781 367.351562 83.925781 366.75 86.476562 C 366 89.851562 363.675781 94.726562 363.148438 98.324219 C 362.773438 101.25 363.074219 103.273438 363.300781 106.5 C 363.675781 111.148438 365.175781 118.351562 365.476562 123.449219 C 365.699219 127.648438 365.699219 130.273438 365.398438 135.074219 C 364.875 142.875 361.800781 157.273438 361.425781 165.898438 C 361.199219 172.199219 361.273438 177.449219 362.175781 182.175781 C 363 186 364.875 188.925781 365.925781 192.300781 C 366.898438 195.601562 367.949219 199.050781 368.324219 201.976562 C 368.625 204.449219 368.398438 206.550781 368.25 208.875 C 368.101562 211.273438 367.875 213.226562 367.199219 216.226562 C 366.074219 221.25 361.726562 228.824219 360.898438 235.949219 C 360 243.898438 362.773438 253.800781 363.148438 261.675781 C 363.449219 268.273438 363.074219 273.898438 363.300781 279.976562 C 363.523438 285.976562 363.976562 293.398438 364.574219 297.898438 C 364.949219 300.601562 365.175781 301.949219 365.925781 304.425781 C 366.898438 307.875 370.050781 312.675781 370.574219 316.199219 C 371.023438 319.050781 370.800781 321.375 370.050781 324 C 369.148438 327.074219 365.699219 329.925781 364.875 333.148438 C 364.125 336.375 364.726562 340.125 365.25 343.5 C 365.851562 346.875 367.726562 349.949219 368.324219 353.398438 C 368.851562 357.074219 369.523438 363.300781 368.476562 365.023438 C 368.101562 365.773438 367.5 365.773438 366.601562 366 C 364.875 366.449219 361.273438 365.625 358.574219 366.148438 C 355.648438 366.675781 353.851562 368.699219 349.800781 369.449219 C 341.550781 371.023438 318.75 370.425781 311.023438 369.976562 C 307.726562 369.75 306.449219 369.601562 303.976562 369 C 301.050781 368.175781 298.273438 366.300781 294.523438 365.25 C 289.574219 363.824219 283.5 362.699219 276.75 362.023438 C 267.898438 361.125 251.550781 361.351562 245.699219 361.5 C 243.375 361.574219 243.148438 361.5 240.898438 361.800781 C 235.726562 362.550781 222.824219 366 215.25 367.199219 C 209.324219 368.101562 203.925781 368.773438 199.273438 368.851562 C 195.75 368.851562 192.523438 368.625 189.824219 368.101562 C 187.800781 367.726562 187.050781 366.976562 184.5 366.601562 C 178.574219 365.773438 160.125 367.273438 154.199219 366.226562 C 151.648438 365.773438 150.375 365.101562 148.875 364.273438 C 147.523438 363.601562 147.449219 362.625 145.5 362.023438 C 138.074219 359.773438 95.851562 361.199219 86.476562 362.101562 C 83.550781 362.398438 82.726562 362.550781 80.773438 363.148438 C 78.523438 363.898438 76.648438 366.148438 73.648438 366.601562 C 69.300781 367.273438 63.449219 364.726562 56.699219 364.351562 C 46.726562 363.675781 26.773438 363.449219 19.726562 364.425781 C 16.800781 364.800781 14.398438 366.449219 13.648438 366.074219 C 13.351562 366 13.425781 365.324219 13.273438 365.324219 C 13.125 365.324219 12.898438 366.226562 12.601562 366.226562 C 11.925781 366.148438 10.875 362.324219 9.75 361.425781 C 8.925781 360.75 7.648438 361.050781 7.050781 360.449219 C 6.449219 359.851562 6.375 359.25 6.074219 357.976562 C 5.398438 354.300781 5.925781 342.976562 6.148438 335.25 C 6.300781 327.148438 7.875 316.875 7.125 310.351562 C 6.675781 306 4.875 303.226562 4.351562 299.699219 C 3.824219 296.398438 3.601562 294 3.824219 289.949219 C 4.273438 283.125 7.800781 271.273438 8.398438 263.023438 C 8.925781 256.199219 7.425781 248.550781 8.023438 244.125 C 8.324219 241.726562 8.773438 240.75 9.601562 238.648438 C 10.800781 235.5 13.949219 232.125 15.226562 227.324219 C 17.175781 220.273438 16.875 205.5 16.949219 199.425781 C 16.949219 196.5 17.25 195.226562 16.648438 192.824219 C 15.824219 189.601562 12.976562 185.851562 11.324219 181.875 C 9.449219 177.375 6.976562 172.050781 6.074219 167.023438 C 5.324219 162.148438 5.851562 156.75 6.226562 152.175781 C 6.523438 148.273438 7.5 145.574219 7.800781 141.300781 C 8.324219 135.148438 7.351562 126.226562 7.949219 118.875 C 8.550781 111.75 10.949219 102.226562 11.25 97.800781 C 11.398438 95.851562 11.25 95.023438 11.25 93.523438 C 11.25 91.949219 11.398438 90.523438 11.101562 88.648438 C 10.726562 86.023438 9.601562 81.976562 8.550781 79.199219 C 7.648438 76.875 6.074219 75.148438 5.550781 72.898438 C 5.023438 70.574219 5.023438 68.324219 5.625 65.476562 C 6.449219 61.351562 10.648438 55.125 11.925781 50.699219 C 12.898438 47.324219 12.675781 44.476562 13.351562 41.476562 C 14.101562 38.550781 15.449219 35.773438 16.050781 32.925781 C 16.648438 30.148438 16.875 27.226562 16.949219 24.601562 C 17.023438 22.273438 17.101562 19.574219 16.726562 17.925781 C 16.5 16.875 16.351562 16.351562 15.75 15.523438 C 14.773438 14.175781 12.375 12.375 10.351562 11.023438 C 8.324219 9.601562 4.125 8.398438 3.449219 7.425781 C 3.226562 7.050781 3.226562 6.601562 3.375 6.375 C 3.523438 6.226562 4.351562 6.226562 4.351562 6.226562 " clip-rule="nonzero"/></clipPath><clipPath id="64a031d0e6"><path d="M 158.207031 209.101562 L 159.625 209.101562 L 159.625 210.351562 L 158.207031 210.351562 Z M 158.207031 209.101562 " clip-rule="nonzero"/></clipPath><clipPath id="972887a58e"><path d="M 159.601562 209.550781 C 159 210.601562 158.398438 210.375 158.25 210.148438 C 158.175781 210 158.25 209.324219 158.476562 209.175781 C 158.625 209.023438 159.449219 209.25 159.449219 209.25 " clip-rule="nonzero"/></clipPath></defs><g clip-path="url(#a4964cf446)"><g clip-path="url(#5af1cc5754)"><path fill="#000000" d="M 0.375 0.226562 L 373.574219 0.226562 L 373.574219 372.675781 L 0.375 372.675781 Z M 0.375 0.226562 " fill-opacity="1" fill-rule="nonzero"/></g></g><g clip-path="url(#64a031d0e6)"><g clip-path="url(#972887a58e)"><path fill="#21c87a" d="M 155.25 206.175781 L 162.667969 206.175781 L 162.667969 213.449219 L 155.25 213.449219 Z M 155.25 206.175781 " fill-opacity="1" fill-rule="nonzero"/></g></g></svg>