<svg xmlns="http://www.w3.org/2000/svg" xmlns:xlink="http://www.w3.org/1999/xlink" width="44" zoomAndPan="magnify" viewBox="0 0 33 32.999998" height="44" preserveAspectRatio="xMidYMid meet" version="1.0"><defs><clipPath id="f7f5c4c127"><path d="M 11 3.300781 L 23 3.300781 L 23 18 L 11 18 Z M 11 3.300781 " clip-rule="nonzero"/></clipPath><clipPath id="0d0efd01d3"><path d="M 3.910156 15 L 29.410156 15 L 29.410156 30.300781 L 3.910156 30.300781 Z M 3.910156 15 " clip-rule="nonzero"/></clipPath></defs><rect x="-3.3" width="39.6" fill="#ffffff" y="-3.3" height="39.599998" fill-opacity="1"/><rect x="-3.3" width="39.6" fill="#ffffff" y="-3.3" height="39.599998" fill-opacity="1"/><path fill="#000000" d="M 23.148438 22.917969 C 22.917969 22.917969 22.730469 23.105469 22.730469 23.339844 L 22.730469 23.761719 L 21.894531 23.761719 C 21.664062 23.761719 21.476562 23.949219 21.476562 24.183594 C 21.476562 24.414062 21.664062 24.605469 21.894531 24.605469 L 25.234375 24.605469 C 25.464844 24.605469 25.652344 24.414062 25.652344 24.183594 C 25.652344 23.949219 25.464844 23.761719 25.234375 23.761719 L 23.566406 23.761719 L 23.566406 23.339844 C 23.566406 23.105469 23.375 22.917969 23.148438 22.917969 Z M 23.148438 22.917969 " fill-opacity="1" fill-rule="nonzero"/><path fill="#000000" d="M 8.105469 23.761719 C 7.875 23.761719 7.6875 23.949219 7.6875 24.183594 C 7.6875 24.414062 7.875 24.605469 8.105469 24.605469 L 11.449219 24.605469 C 11.679688 24.605469 11.867188 24.414062 11.867188 24.183594 C 11.867188 23.949219 11.679688 23.761719 11.449219 23.761719 Z M 8.105469 23.761719 " fill-opacity="1" fill-rule="nonzero"/><g clip-path="url(#f7f5c4c127)"><path fill="#000000" d="M 16.585938 17.222656 C 17.464844 17.222656 18.320312 16.925781 19.050781 16.292969 C 20.554688 15.007812 21.558594 13.003906 22.0625 11.0625 C 22.207031 10.472656 22.289062 9.839844 22.289062 9.226562 C 22.3125 5.957031 19.785156 3.300781 16.671875 3.300781 C 15.144531 3.300781 13.765625 3.933594 12.765625 4.964844 C 11.699219 6.042969 11.03125 7.539062 11.03125 9.226562 C 11.03125 11.421875 11.929688 13.953125 13.308594 15.617188 C 14.164062 16.652344 15.375 17.222656 16.585938 17.222656 Z M 13.347656 5.558594 C 14.246094 4.648438 15.417969 4.144531 16.671875 4.144531 C 19.324219 4.144531 21.476562 6.421875 21.476562 9.226562 C 21.476562 9.753906 21.414062 10.304688 21.265625 10.851562 C 20.746094 12.855469 19.742188 14.605469 18.507812 15.660156 C 17.964844 16.125 17.296875 16.378906 16.585938 16.378906 C 15.605469 16.378906 14.625 15.894531 13.933594 15.070312 C 12.703125 13.574219 11.867188 11.230469 11.867188 9.226562 C 11.867188 7.8125 12.386719 6.527344 13.347656 5.558594 Z M 13.347656 5.558594 " fill-opacity="1" fill-rule="nonzero"/></g><g clip-path="url(#0d0efd01d3)"><path fill="#000000" d="M 22.875 17.707031 C 21.683594 17.496094 21.015625 16.652344 20.660156 15.851562 C 20.597656 15.914062 20.554688 15.976562 20.492188 16.0625 L 17.632812 18.675781 C 17.527344 18.804688 17.464844 18.953125 17.421875 19.121094 L 15.773438 19.121094 C 15.730469 18.992188 15.667969 18.867188 15.585938 18.761719 L 12.554688 15.957031 L 12.386719 16.292969 C 12.261719 16.527344 12.117188 16.757812 11.949219 16.949219 C 11.574219 17.304688 11.113281 17.601562 10.488281 17.707031 C 10.488281 17.707031 4.242188 18.742188 3.949219 23.65625 C 3.949219 23.65625 3.949219 26.480469 3.949219 28.867188 C 3.925781 29.667969 4.554688 30.300781 5.304688 30.300781 L 15.125 30.300781 C 15.125 30.300781 14.332031 29.5 14.289062 29.457031 L 5.304688 29.457031 C 5.015625 29.457031 4.785156 29.203125 4.785156 28.867188 C 4.785156 26.628906 4.785156 23.972656 4.785156 23.675781 C 5.054688 19.519531 10.570312 18.53125 10.632812 18.53125 C 10.863281 18.488281 11.070312 18.425781 11.261719 18.359375 L 13.578125 21.863281 C 13.703125 22.136719 13.890625 22.285156 14.101562 22.285156 C 14.269531 22.285156 14.4375 22.199219 14.582031 22.011719 L 15.167969 21.019531 L 15.5625 21.777344 L 14.625 27.726562 C 14.539062 28.167969 14.707031 28.695312 15 28.992188 L 16.066406 30.046875 C 16.230469 30.214844 16.460938 30.300781 16.710938 30.300781 C 16.941406 30.300781 17.171875 30.214844 17.359375 30.046875 L 18.425781 28.992188 C 18.71875 28.695312 18.863281 28.167969 18.78125 27.726562 L 17.652344 21.839844 L 18.132812 20.996094 L 18.675781 21.925781 C 18.824219 22.117188 18.988281 22.199219 19.15625 22.199219 C 19.367188 22.199219 19.554688 22.050781 19.679688 21.777344 L 22 18.296875 C 22.226562 18.402344 22.5 18.464844 22.769531 18.53125 C 22.832031 18.53125 28.328125 19.519531 28.621094 23.675781 C 28.621094 23.972656 28.621094 26.652344 28.621094 28.867188 C 28.621094 29.183594 28.390625 29.433594 28.097656 29.433594 L 19.074219 29.433594 C 19.03125 29.476562 18.238281 30.277344 18.238281 30.277344 L 28.035156 30.277344 C 28.789062 30.277344 29.394531 29.644531 29.394531 28.867188 C 29.394531 26.523438 29.394531 23.65625 29.394531 23.65625 C 29.101562 18.742188 22.875 17.707031 22.875 17.707031 Z M 16.210938 21.230469 L 15.648438 20.152344 C 15.6875 20.089844 15.730469 20.027344 15.75 19.964844 L 17.507812 19.964844 C 17.546875 20.027344 17.570312 20.089844 17.632812 20.152344 L 17.003906 21.230469 Z M 14.875 19.816406 L 14.101562 21.144531 L 12.011719 18.003906 C 12.160156 17.898438 12.304688 17.769531 12.429688 17.621094 C 12.535156 17.515625 12.640625 17.410156 12.742188 17.285156 L 14.957031 19.332031 C 15.019531 19.4375 15.019531 19.625 14.9375 19.710938 L 14.894531 19.753906 Z M 17.800781 28.378906 L 16.734375 29.433594 C 16.710938 29.457031 16.648438 29.457031 16.628906 29.433594 L 15.5625 28.378906 C 15.480469 28.296875 15.398438 28.042969 15.4375 27.851562 L 16.335938 22.074219 L 16.796875 22.074219 L 17.902344 27.875 C 17.945312 28.042969 17.882812 28.296875 17.800781 28.378906 Z M 19.113281 21.0625 L 18.34375 19.730469 L 18.300781 19.667969 L 18.257812 19.625 C 18.195312 19.542969 18.175781 19.351562 18.238281 19.246094 L 20.453125 17.199219 C 20.660156 17.476562 20.910156 17.707031 21.183594 17.917969 Z M 19.113281 21.0625 " fill-opacity="1" fill-rule="nonzero"/></g></svg>