<svg xmlns="http://www.w3.org/2000/svg" xmlns:xlink="http://www.w3.org/1999/xlink" width="44" zoomAndPan="magnify" viewBox="0 0 33 32.999998" height="44" preserveAspectRatio="xMidYMid meet" version="1.0"><defs><clipPath id="361af4e08d"><path d="M 5 13 L 28.238281 13 L 28.238281 27.890625 L 5 27.890625 Z M 5 13 " clip-rule="nonzero"/></clipPath><clipPath id="102529430a"><path d="M 5 18 L 28.238281 18 L 28.238281 27.890625 L 5 27.890625 Z M 5 18 " clip-rule="nonzero"/></clipPath><clipPath id="5118c96d9b"><path d="M 22 9 L 28.238281 9 L 28.238281 15 L 22 15 Z M 22 9 " clip-rule="nonzero"/></clipPath><clipPath id="195cafee1e"><path d="M 18 13 L 28.238281 13 L 28.238281 22 L 18 22 Z M 18 13 " clip-rule="nonzero"/></clipPath><clipPath id="a8a3163174"><path d="M 9 5.390625 L 24 5.390625 L 24 18 L 9 18 Z M 9 5.390625 " clip-rule="nonzero"/></clipPath></defs><rect x="-3.3" width="39.6" fill="#ffffff" y="-3.3" height="39.599998" fill-opacity="1"/><rect x="-3.3" width="39.6" fill="#ffffff" y="-3.3" height="39.599998" fill-opacity="1"/><g clip-path="url(#361af4e08d)"><path fill="#000000" d="M 27.828125 27.84375 L 5.398438 27.84375 C 5.203125 27.84375 5.046875 27.6875 5.046875 27.492188 L 5.046875 13.816406 C 5.046875 13.621094 5.203125 13.464844 5.398438 13.464844 C 5.589844 13.464844 5.746094 13.621094 5.746094 13.816406 L 5.746094 27.140625 L 27.480469 27.140625 L 27.480469 13.816406 C 27.480469 13.621094 27.636719 13.464844 27.828125 13.464844 C 28.023438 13.464844 28.179688 13.621094 28.179688 13.816406 L 28.179688 27.492188 C 28.179688 27.6875 28.023438 27.84375 27.828125 27.84375 " fill-opacity="1" fill-rule="nonzero"/></g><g clip-path="url(#102529430a)"><path fill="#000000" d="M 27.828125 27.84375 C 27.757812 27.84375 27.683594 27.824219 27.621094 27.777344 L 16.613281 19.6875 L 5.605469 27.777344 C 5.445312 27.890625 5.226562 27.855469 5.113281 27.699219 C 5 27.542969 5.035156 27.324219 5.191406 27.210938 L 16.40625 18.96875 C 16.53125 18.878906 16.695312 18.878906 16.820312 18.96875 L 28.035156 27.210938 C 28.191406 27.324219 28.226562 27.542969 28.113281 27.699219 C 28.042969 27.792969 27.9375 27.84375 27.828125 27.84375 " fill-opacity="1" fill-rule="nonzero"/></g><g clip-path="url(#5118c96d9b)"><path fill="#000000" d="M 27.828125 14.167969 C 27.757812 14.167969 27.683594 14.144531 27.621094 14.097656 L 22.828125 10.574219 C 22.671875 10.460938 22.636719 10.242188 22.75 10.082031 C 22.867188 9.929688 23.085938 9.890625 23.242188 10.007812 L 28.035156 13.53125 C 28.191406 13.644531 28.226562 13.867188 28.113281 14.023438 C 28.042969 14.117188 27.9375 14.167969 27.828125 14.167969 " fill-opacity="1" fill-rule="nonzero"/></g><path fill="#000000" d="M 5.398438 14.167969 C 5.289062 14.167969 5.183594 14.117188 5.113281 14.023438 C 5 13.867188 5.035156 13.644531 5.191406 13.53125 L 9.84375 10.109375 C 10 9.996094 10.21875 10.03125 10.335938 10.1875 C 10.449219 10.34375 10.414062 10.5625 10.257812 10.679688 L 5.605469 14.097656 C 5.542969 14.144531 5.46875 14.167969 5.398438 14.167969 " fill-opacity="1" fill-rule="nonzero"/><g clip-path="url(#195cafee1e)"><path fill="#000000" d="M 18.519531 21.003906 C 18.414062 21.003906 18.308594 20.957031 18.238281 20.863281 C 18.125 20.703125 18.15625 20.484375 18.3125 20.371094 L 27.621094 13.53125 C 27.78125 13.414062 28 13.449219 28.113281 13.605469 C 28.226562 13.761719 28.191406 13.984375 28.035156 14.097656 L 18.726562 20.9375 C 18.664062 20.984375 18.59375 21.003906 18.519531 21.003906 " fill-opacity="1" fill-rule="nonzero"/></g><path fill="#000000" d="M 14.707031 21.003906 C 14.632812 21.003906 14.5625 20.984375 14.5 20.9375 L 5.191406 14.097656 C 5.035156 13.984375 5 13.761719 5.113281 13.605469 C 5.226562 13.449219 5.445312 13.414062 5.605469 13.53125 L 14.914062 20.371094 C 15.070312 20.484375 15.101562 20.703125 14.988281 20.863281 C 14.917969 20.957031 14.8125 21.003906 14.707031 21.003906 " fill-opacity="1" fill-rule="nonzero"/><g clip-path="url(#a8a3163174)"><path fill="#000000" d="M 22.90625 17.78125 C 22.714844 17.78125 22.554688 17.625 22.554688 17.429688 L 22.554688 6.09375 L 10.402344 6.09375 L 10.402344 17.199219 C 10.402344 17.394531 10.246094 17.550781 10.050781 17.550781 C 9.859375 17.550781 9.699219 17.394531 9.699219 17.199219 L 9.699219 5.742188 C 9.699219 5.546875 9.859375 5.390625 10.050781 5.390625 L 22.90625 5.390625 C 23.101562 5.390625 23.257812 5.546875 23.257812 5.742188 L 23.257812 17.429688 C 23.257812 17.625 23.101562 17.78125 22.90625 17.78125 " fill-opacity="1" fill-rule="nonzero"/></g><path fill="#000000" d="M 16.65625 11.328125 C 16.046875 11.328125 15.546875 11.824219 15.546875 12.4375 C 15.546875 13.050781 16.046875 13.550781 16.65625 13.550781 C 17.265625 13.550781 17.765625 13.050781 17.765625 12.4375 C 17.765625 11.824219 17.265625 11.328125 16.65625 11.328125 Z M 16.65625 14.253906 C 15.660156 14.253906 14.847656 13.4375 14.847656 12.4375 C 14.847656 11.4375 15.660156 10.625 16.65625 10.625 C 17.652344 10.625 18.464844 11.4375 18.464844 12.4375 C 18.464844 13.4375 17.652344 14.253906 16.65625 14.253906 " fill-opacity="1" fill-rule="nonzero"/><path fill="#000000" d="M 16.480469 16.777344 C 14.140625 16.777344 12.238281 14.871094 12.238281 12.523438 C 12.238281 10.179688 14.140625 8.269531 16.480469 8.269531 C 18.816406 8.269531 20.722656 10.179688 20.722656 12.523438 L 20.722656 12.875 C 20.722656 13.683594 20.066406 14.339844 19.261719 14.339844 C 18.453125 14.339844 17.800781 13.683594 17.800781 12.875 L 17.800781 11.0625 C 17.800781 10.867188 17.957031 10.710938 18.148438 10.710938 C 18.34375 10.710938 18.5 10.867188 18.5 11.0625 L 18.5 12.875 C 18.5 13.292969 18.839844 13.636719 19.261719 13.636719 C 19.679688 13.636719 20.019531 13.292969 20.019531 12.875 L 20.019531 12.523438 C 20.019531 10.566406 18.433594 8.972656 16.480469 8.972656 C 14.527344 8.972656 12.9375 10.566406 12.9375 12.523438 C 12.9375 14.484375 14.527344 16.074219 16.480469 16.074219 C 17.175781 16.074219 17.851562 15.871094 18.429688 15.488281 C 18.589844 15.378906 18.808594 15.425781 18.914062 15.585938 C 19.023438 15.75 18.980469 15.96875 18.816406 16.074219 C 18.125 16.535156 17.316406 16.777344 16.480469 16.777344 " fill-opacity="1" fill-rule="nonzero"/></svg>