<svg width="44" zoomAndPan="magnify" viewBox="0 0 33 32.999998" height="44" preserveAspectRatio="xMidYMid meet" version="1.0"><defs><clipPath id="b85699152c"><path d="M 1 1.648438 L 33 1.648438 L 33 17 L 1 17 Z M 1 1.648438 " clip-rule="nonzero"/></clipPath><clipPath id="e4ac8ae867"><path d="M 4 8 L 30 8 L 30 31.648438 L 4 31.648438 Z M 4 8 " clip-rule="nonzero"/></clipPath></defs><g clip-path="url(#b85699152c)"><path fill="#000000" d="M 31.933594 12.1875 L 26.855469 8.449219 L 26.855469 3.992188 C 26.855469 3.292969 26.289062 2.726562 25.589844 2.726562 L 23.535156 2.726562 C 22.835938 2.726562 22.269531 3.292969 22.269531 3.992188 L 22.269531 5.074219 L 18.394531 2.222656 C 17.554688 1.605469 16.179688 1.605469 15.339844 2.222656 L 1.800781 12.1875 C 0.957031 12.804688 0.777344 14 1.394531 14.84375 L 1.769531 15.351562 C 2.386719 16.191406 3.582031 16.375 4.421875 15.753906 L 15.339844 7.71875 C 16.179688 7.101562 17.554688 7.101562 18.394531 7.71875 L 29.3125 15.753906 C 30.152344 16.375 31.34375 16.191406 31.964844 15.351562 L 32.339844 14.84375 C 32.957031 14 32.773438 12.804688 31.933594 12.1875 Z M 31.933594 12.1875 " fill-opacity="1" fill-rule="nonzero"/></g><g clip-path="url(#e4ac8ae867)"><path fill="#000000" d="M 27.882812 16.453125 L 18.394531 9.4375 C 17.554688 8.816406 16.179688 8.816406 15.34375 9.4375 L 5.851562 16.453125 C 5.011719 17.074219 4.324219 17.984375 4.324219 18.476562 L 4.324219 28.648438 C 4.324219 30.300781 5.738281 31.640625 7.484375 31.640625 L 13.28125 31.640625 L 13.28125 22.640625 C 13.28125 21.945312 13.851562 21.375 14.546875 21.375 L 19.1875 21.375 C 19.878906 21.375 20.449219 21.945312 20.449219 22.640625 L 20.449219 31.640625 L 26.246094 31.640625 C 27.992188 31.640625 29.40625 30.300781 29.40625 28.648438 L 29.40625 18.476562 C 29.410156 17.984375 28.722656 17.074219 27.882812 16.453125 Z M 27.882812 16.453125 " fill-opacity="1" fill-rule="nonzero"/></g></svg>