<svg xmlns="http://www.w3.org/2000/svg" xmlns:xlink="http://www.w3.org/1999/xlink" width="44" zoomAndPan="magnify" viewBox="0 0 33 32.999998" height="44" preserveAspectRatio="xMidYMid meet" version="1.0"><defs><clipPath id="cb9e8bc09a"><path d="M 4.859375 2.28125 L 28.109375 2.28125 L 28.109375 30.78125 L 4.859375 30.78125 Z M 4.859375 2.28125 " clip-rule="nonzero"/></clipPath></defs><rect x="-3.3" width="39.6" fill="#ffffff" y="-3.3" height="39.599998" fill-opacity="1"/><rect x="-3.3" width="39.6" fill="#ffffff" y="-3.3" height="39.599998" fill-opacity="1"/><g clip-path="url(#cb9e8bc09a)"><path fill="#000000" d="M 25.425781 24.195312 C 24.039062 23.636719 22.152344 23.21875 20.058594 23 C 22.769531 19.332031 25.769531 14.652344 25.769531 11.597656 C 25.769531 6.460938 21.605469 2.28125 16.484375 2.28125 C 11.367188 2.28125 7.203125 6.460938 7.203125 11.597656 C 7.203125 13.480469 8.382812 16.246094 10.710938 19.820312 C 11.425781 20.914062 12.1875 21.996094 12.925781 22.996094 C 10.824219 23.21875 8.9375 23.636719 7.546875 24.195312 C 5.332031 25.082031 4.867188 26.101562 4.867188 26.796875 C 4.867188 29.382812 10.851562 30.78125 16.484375 30.78125 C 22.117188 30.78125 28.105469 29.382812 28.105469 26.796875 C 28.105469 26.101562 27.640625 25.082031 25.425781 24.195312 Z M 8.089844 11.597656 C 8.089844 6.949219 11.855469 3.171875 16.484375 3.171875 C 21.113281 3.171875 24.882812 6.949219 24.882812 11.597656 C 24.882812 13.324219 23.765625 15.914062 21.5625 19.292969 C 19.816406 21.972656 17.792969 24.53125 16.484375 26.164062 C 13.882812 22.902344 8.089844 15.480469 8.089844 11.597656 Z M 16.140625 27.15625 C 16.222656 27.261719 16.351562 27.324219 16.484375 27.324219 C 16.621094 27.324219 16.746094 27.261719 16.832031 27.15625 L 16.960938 26.992188 C 17.246094 26.636719 17.570312 26.230469 17.925781 25.78125 C 20.132812 25.972656 21.015625 26.511719 21.085938 26.695312 C 21.050781 26.785156 20.753906 27.058594 19.804688 27.304688 C 18.90625 27.542969 17.726562 27.671875 16.484375 27.671875 C 15.246094 27.671875 14.066406 27.542969 13.164062 27.304688 C 12.214844 27.058594 11.921875 26.785156 11.882812 26.695312 C 11.957031 26.511719 12.839844 25.96875 15.046875 25.78125 C 15.460938 26.308594 15.832031 26.773438 16.140625 27.15625 Z M 24.253906 28.875 C 22.183594 29.527344 19.425781 29.890625 16.484375 29.890625 C 13.542969 29.890625 10.785156 29.527344 8.71875 28.875 C 6.863281 28.289062 5.753906 27.511719 5.753906 26.796875 C 5.753906 25.664062 8.664062 24.257812 13.546875 23.832031 C 13.839844 24.222656 14.128906 24.601562 14.402344 24.957031 C 13.066406 25.125 10.996094 25.566406 10.996094 26.695312 C 10.996094 28.167969 14.445312 28.5625 16.484375 28.5625 C 18.523438 28.5625 21.976562 28.167969 21.976562 26.695312 C 21.976562 25.566406 19.90625 25.125 18.574219 24.957031 C 18.851562 24.601562 19.140625 24.222656 19.433594 23.832031 C 24.3125 24.261719 27.214844 25.664062 27.214844 26.796875 C 27.214844 27.511719 26.109375 28.289062 24.253906 28.875 Z M 21.210938 11.585938 C 21.210938 8.96875 19.089844 6.84375 16.484375 6.84375 C 13.878906 6.84375 11.757812 8.96875 11.757812 11.585938 C 11.757812 14.199219 13.878906 16.328125 16.484375 16.328125 C 19.089844 16.328125 21.210938 14.199219 21.210938 11.585938 Z M 16.484375 15.4375 C 14.367188 15.4375 12.644531 13.710938 12.644531 11.585938 C 12.644531 9.460938 14.367188 7.734375 16.484375 7.734375 C 18.601562 7.734375 20.324219 9.460938 20.324219 11.585938 C 20.324219 13.710938 18.601562 15.4375 16.484375 15.4375 Z M 16.484375 15.4375 " fill-opacity="1" fill-rule="nonzero"/></g></svg>