<svg width="44" zoomAndPan="magnify" viewBox="0 0 33 32.999998" height="44" preserveAspectRatio="xMidYMid meet" version="1.0"><defs><clipPath id="2cade506c0"><path d="M 5 3.300781 L 30.300781 3.300781 L 30.300781 29 L 5 29 Z M 5 3.300781 " clip-rule="nonzero"/></clipPath></defs><rect x="-3.3" width="39.6" fill="#ffffff" y="-3.3" height="39.599998" fill-opacity="1"/><rect x="-3.3" width="39.6" fill="#ffffff" y="-3.3" height="39.599998" fill-opacity="1"/><g clip-path="url(#2cade506c0)"><path fill="#000000" d="M 23.953125 19.488281 C 23.515625 19.230469 22.976562 19.238281 22.542969 19.496094 L 20.332031 20.8125 C 19.835938 21.105469 19.21875 21.074219 18.765625 20.71875 C 17.980469 20.105469 16.71875 19.074219 15.621094 17.976562 C 14.523438 16.878906 13.492188 15.617188 12.878906 14.832031 C 12.523438 14.378906 12.492188 13.761719 12.785156 13.265625 L 14.101562 11.054688 C 14.363281 10.621094 14.363281 10.078125 14.109375 9.636719 L 10.867188 4.101562 C 10.550781 3.566406 9.925781 3.300781 9.324219 3.449219 C 8.738281 3.589844 7.976562 3.9375 7.175781 4.738281 C 4.679688 7.238281 3.351562 11.453125 12.75 20.851562 C 22.148438 30.25 26.359375 28.921875 28.863281 26.421875 C 29.660156 25.621094 30.007812 24.859375 30.152344 24.273438 C 30.296875 23.667969 30.039062 23.050781 29.503906 22.738281 C 28.167969 21.957031 25.289062 20.269531 23.953125 19.488281 Z M 23.953125 19.488281 " fill-opacity="1" fill-rule="nonzero"/></g></svg>