<svg xmlns="http://www.w3.org/2000/svg" xmlns:xlink="http://www.w3.org/1999/xlink" width="44" zoomAndPan="magnify" viewBox="0 0 33 32.999998" height="44" preserveAspectRatio="xMidYMid meet" version="1.0"><defs><clipPath id="c65a786624"><path d="M 16 3.300781 L 29.550781 3.300781 L 29.550781 17 L 16 17 Z M 16 3.300781 " clip-rule="nonzero"/></clipPath><clipPath id="04de5643b4"><path d="M 3.300781 4 L 29 4 L 29 29.550781 L 3.300781 29.550781 Z M 3.300781 4 " clip-rule="nonzero"/></clipPath></defs><rect x="-3.3" width="39.6" fill="#ffffff" y="-3.3" height="39.599998" fill-opacity="1"/><rect x="-3.3" width="39.6" fill="#ffffff" y="-3.3" height="39.599998" fill-opacity="1"/><path fill="#000000" d="M 16.828125 7.75 C 16.828125 7.636719 16.867188 7.542969 16.945312 7.464844 C 17.023438 7.386719 17.117188 7.347656 17.226562 7.347656 C 17.769531 7.347656 18.308594 7.402344 18.84375 7.511719 C 19.375 7.617188 19.894531 7.777344 20.394531 7.988281 C 20.898438 8.203125 21.375 8.460938 21.828125 8.769531 C 22.28125 9.078125 22.699219 9.425781 23.085938 9.816406 C 23.46875 10.207031 23.8125 10.632812 24.113281 11.09375 C 24.417969 11.550781 24.671875 12.035156 24.882812 12.546875 C 25.089844 13.058594 25.246094 13.585938 25.351562 14.128906 C 25.460938 14.667969 25.511719 15.21875 25.515625 15.769531 C 25.515625 15.882812 25.476562 15.976562 25.398438 16.054688 C 25.320312 16.132812 25.226562 16.171875 25.117188 16.171875 C 25.007812 16.171875 24.914062 16.132812 24.839844 16.054688 C 24.761719 15.976562 24.722656 15.882812 24.722656 15.769531 C 24.722656 15.269531 24.671875 14.773438 24.578125 14.285156 C 24.480469 13.792969 24.335938 13.316406 24.148438 12.855469 C 23.960938 12.394531 23.730469 11.957031 23.457031 11.539062 C 23.183594 11.125 22.871094 10.738281 22.523438 10.386719 C 22.175781 10.03125 21.796875 9.714844 21.386719 9.4375 C 20.980469 9.160156 20.546875 8.925781 20.09375 8.734375 C 19.636719 8.542969 19.171875 8.398438 18.6875 8.300781 C 18.203125 8.203125 17.71875 8.152344 17.226562 8.152344 C 17.117188 8.152344 17.023438 8.113281 16.945312 8.035156 C 16.867188 7.957031 16.828125 7.859375 16.828125 7.75 Z M 16.828125 7.75 " fill-opacity="1" fill-rule="nonzero"/><g clip-path="url(#c65a786624)"><path fill="#000000" d="M 29.507812 15.769531 C 29.507812 15.882812 29.46875 15.976562 29.394531 16.054688 C 29.316406 16.132812 29.222656 16.171875 29.113281 16.171875 C 29.003906 16.171875 28.910156 16.132812 28.832031 16.054688 C 28.753906 15.976562 28.714844 15.882812 28.714844 15.769531 C 28.714844 15.003906 28.640625 14.242188 28.496094 13.492188 C 28.347656 12.738281 28.128906 12.011719 27.839844 11.300781 C 27.550781 10.59375 27.195312 9.921875 26.777344 9.28125 C 26.359375 8.644531 25.882812 8.054688 25.347656 7.511719 C 24.816406 6.972656 24.234375 6.488281 23.609375 6.0625 C 22.980469 5.632812 22.320312 5.273438 21.621094 4.980469 C 20.925781 4.6875 20.207031 4.464844 19.46875 4.316406 C 18.726562 4.164062 17.980469 4.089844 17.226562 4.089844 C 17.117188 4.089844 17.023438 4.046875 16.945312 3.96875 C 16.867188 3.890625 16.828125 3.796875 16.828125 3.683594 C 16.828125 3.574219 16.867188 3.480469 16.945312 3.402344 C 17.023438 3.320312 17.117188 3.28125 17.226562 3.28125 C 18.03125 3.285156 18.832031 3.363281 19.621094 3.527344 C 20.410156 3.6875 21.179688 3.925781 21.925781 4.238281 C 22.667969 4.550781 23.375 4.9375 24.046875 5.394531 C 24.71875 5.847656 25.335938 6.367188 25.90625 6.945312 C 26.476562 7.523438 26.988281 8.15625 27.433594 8.835938 C 27.882812 9.519531 28.261719 10.238281 28.570312 10.996094 C 28.878906 11.75 29.113281 12.53125 29.269531 13.335938 C 29.429688 14.140625 29.507812 14.949219 29.507812 15.769531 Z M 29.507812 15.769531 " fill-opacity="1" fill-rule="nonzero"/></g><path fill="#000000" d="M 16.828125 11.808594 C 16.828125 11.699219 16.867188 11.601562 16.945312 11.523438 C 17.023438 11.445312 17.117188 11.40625 17.226562 11.40625 C 17.507812 11.40625 17.785156 11.4375 18.0625 11.492188 C 18.335938 11.550781 18.605469 11.632812 18.863281 11.742188 C 19.125 11.851562 19.371094 11.988281 19.601562 12.148438 C 19.835938 12.308594 20.050781 12.488281 20.25 12.691406 C 20.449219 12.894531 20.625 13.113281 20.78125 13.351562 C 20.9375 13.589844 21.070312 13.839844 21.175781 14.105469 C 21.285156 14.367188 21.367188 14.640625 21.421875 14.921875 C 21.476562 15.199219 21.503906 15.484375 21.503906 15.769531 C 21.503906 15.882812 21.464844 15.976562 21.386719 16.054688 C 21.308594 16.132812 21.214844 16.171875 21.105469 16.171875 C 21 16.164062 20.910156 16.125 20.832031 16.046875 C 20.757812 15.972656 20.714844 15.878906 20.710938 15.769531 C 20.710938 15.296875 20.621094 14.84375 20.445312 14.410156 C 20.265625 13.972656 20.015625 13.589844 19.6875 13.253906 C 19.359375 12.921875 18.980469 12.664062 18.550781 12.484375 C 18.125 12.300781 17.675781 12.210938 17.214844 12.210938 C 17.105469 12.207031 17.015625 12.167969 16.941406 12.089844 C 16.867188 12.011719 16.828125 11.917969 16.828125 11.808594 Z M 16.828125 11.808594 " fill-opacity="1" fill-rule="nonzero"/><g clip-path="url(#04de5643b4)"><path fill="#000000" d="M 28.152344 24.367188 L 28.152344 25.148438 C 28.148438 25.78125 27.925781 26.324219 27.484375 26.769531 L 25.414062 28.859375 C 24.976562 29.300781 24.453125 29.519531 23.839844 29.523438 L 23.75 29.523438 C 23.089844 29.496094 22.433594 29.4375 21.78125 29.34375 C 21.125 29.253906 20.480469 29.132812 19.835938 28.980469 C 19.195312 28.828125 18.558594 28.648438 17.933594 28.4375 C 17.308594 28.222656 16.695312 27.984375 16.089844 27.714844 C 15.488281 27.445312 14.898438 27.144531 14.320312 26.820312 C 13.742188 26.496094 13.183594 26.144531 12.640625 25.765625 C 12.09375 25.386719 11.570312 24.984375 11.0625 24.554688 C 10.554688 24.128906 10.066406 23.675781 9.601562 23.203125 C 9.136719 22.730469 8.691406 22.234375 8.269531 21.71875 C 7.847656 21.203125 7.453125 20.667969 7.082031 20.113281 C 6.707031 19.5625 6.363281 18.992188 6.042969 18.40625 C 5.722656 17.820312 5.429688 17.21875 5.164062 16.605469 C 4.898438 15.992188 4.660156 15.367188 4.453125 14.734375 C 4.246094 14.097656 4.066406 13.453125 3.917969 12.800781 C 3.769531 12.148438 3.648438 11.488281 3.558594 10.824219 C 3.46875 10.160156 3.410156 9.492188 3.382812 8.824219 C 3.347656 8.15625 3.566406 7.585938 4.03125 7.109375 L 6.089844 5.027344 C 6.53125 4.578125 7.0625 4.351562 7.6875 4.347656 L 8.441406 4.347656 C 8.90625 4.351562 9.335938 4.484375 9.71875 4.753906 C 10.105469 5.023438 10.378906 5.382812 10.546875 5.828125 L 12.367188 10.742188 C 12.515625 11.152344 12.546875 11.570312 12.464844 11.996094 C 12.378906 12.425781 12.1875 12.796875 11.894531 13.113281 L 11.140625 13.925781 C 10.90625 14.175781 10.773438 14.476562 10.746094 14.824219 C 10.722656 15.175781 10.804688 15.492188 11 15.777344 C 12.609375 18.152344 14.574219 20.160156 16.902344 21.808594 C 17.183594 21.996094 17.492188 22.074219 17.828125 22.042969 C 18.164062 22.011719 18.453125 21.875 18.695312 21.640625 L 19.503906 20.863281 C 19.816406 20.5625 20.183594 20.371094 20.605469 20.285156 C 21.027344 20.199219 21.4375 20.230469 21.839844 20.382812 L 26.675781 22.230469 C 27.117188 22.398438 27.472656 22.675781 27.742188 23.066406 C 28.011719 23.457031 28.148438 23.890625 28.152344 24.367188 Z M 28.152344 24.367188 " fill-opacity="1" fill-rule="nonzero"/></g></svg>